<svg width="17" height="19" viewBox="0 0 17 19" fill="none" xmlns="http://www.w3.org/2000/svg">
<path d="M8.50003 19C9.07864 19.0002 9.63743 18.7892 10.0715 18.4065C10.5055 18.0239 10.7849 17.496 10.8572 16.9219C10.8774 16.7592 10.742 16.625 10.5782 16.625H6.42191C6.25803 16.625 6.12266 16.7592 6.14284 16.9219C6.21517 17.496 6.49458 18.0239 6.92861 18.4065C7.36263 18.7892 7.92142 19.0002 8.50003 19ZM2.56253 5.9375C2.56253 4.36278 3.18809 2.85255 4.30158 1.73905C5.41508 0.625556 6.92531 0 8.50003 0C10.0748 0 11.585 0.625556 12.6985 1.73905C13.812 2.85255 14.4375 4.36278 14.4375 5.9375V9.43706C14.4375 9.49644 14.4553 9.55344 14.4874 9.60213L16.5097 12.6362C16.6899 12.9077 16.7932 13.223 16.8086 13.5486C16.824 13.8741 16.7509 14.1978 16.597 14.4851C16.4432 14.7724 16.2144 15.0127 15.9349 15.1804C15.6555 15.3481 15.3358 15.4369 15.0099 15.4375H1.99016C1.66357 15.4383 1.34292 15.3502 1.06255 15.1827C0.782179 15.0152 0.552653 14.7746 0.398553 14.4867C0.244453 14.1988 0.171586 13.8743 0.187755 13.5481C0.203924 13.2219 0.308521 12.9063 0.490343 12.635L2.51266 9.60213C2.54493 9.5531 2.56225 9.49575 2.56253 9.43706V5.9375ZM8.50003 1.78125C7.39772 1.78125 6.34057 2.21914 5.56112 2.99859C4.78167 3.77804 4.34378 4.83519 4.34378 5.9375V9.43706C4.34378 9.84794 4.22265 10.2481 3.99465 10.5889L1.97234 13.6242C1.96994 13.6277 1.96869 13.6318 1.96878 13.6361L1.96997 13.6432C1.96997 13.6456 1.97234 13.6479 1.97472 13.6503L1.98184 13.6551L1.99016 13.6562H15.0099L15.0182 13.6551L15.0253 13.6503L15.0301 13.6432L15.0313 13.6349C15.0314 13.6306 15.0301 13.6265 15.0277 13.623L13.0054 10.5901C12.7776 10.2492 12.6561 9.84829 12.6563 9.43825V5.9375C12.6563 4.83519 12.2184 3.77804 11.4389 2.99859C10.6595 2.21914 9.60234 1.78125 8.50003 1.78125Z" fill="#5C5C5C"/>
</svg>
