<svg width="25" height="25" viewBox="0 0 25 25" fill="none" xmlns="http://www.w3.org/2000/svg">
<path d="M12.5001 18.5417C12.8424 18.5417 13.1296 18.4257 13.3616 18.1937C13.5936 17.9617 13.7092 17.6749 13.7084 17.3333C13.7084 16.991 13.5924 16.7042 13.3604 16.473C13.1284 16.2418 12.8416 16.1258 12.5001 16.125C12.1577 16.125 11.8709 16.241 11.6397 16.473C11.4086 16.705 11.2926 16.9918 11.2917 17.3333C11.2917 17.6757 11.4077 17.9629 11.6397 18.1949C11.8717 18.4269 12.1585 18.5425 12.5001 18.5417ZM11.2917 13.7083H13.7084V6.45833H11.2917V13.7083ZM12.5001 24.5833C10.8286 24.5833 9.25772 24.2659 7.78758 23.6312C6.31744 22.9964 5.03862 22.1357 3.95112 21.049C2.86362 19.9615 2.00289 18.6826 1.36891 17.2125C0.734943 15.7424 0.417554 14.1715 0.416748 12.5C0.416748 10.8285 0.734137 9.25764 1.36891 7.7875C2.00369 6.31736 2.86443 5.03854 3.95112 3.95104C5.03862 2.86354 6.31744 2.00281 7.78758 1.36883C9.25772 0.734861 10.8286 0.417472 12.5001 0.416666C14.1716 0.416666 15.7424 0.734055 17.2126 1.36883C18.6827 2.00361 19.9615 2.86435 21.049 3.95104C22.1365 5.03854 22.9977 6.31736 23.6325 7.7875C24.2672 9.25764 24.5842 10.8285 24.5834 12.5C24.5834 14.1715 24.266 15.7424 23.6312 17.2125C22.9965 18.6826 22.1357 19.9615 21.049 21.049C19.9615 22.1365 18.6827 22.9976 17.2126 23.6324C15.7424 24.2672 14.1716 24.5841 12.5001 24.5833ZM12.5001 22.1667C15.1987 22.1667 17.4845 21.2302 19.3574 19.3573C21.2303 17.4844 22.1667 15.1986 22.1667 12.5C22.1667 9.80139 21.2303 7.51562 19.3574 5.64271C17.4845 3.76979 15.1987 2.83333 12.5001 2.83333C9.80147 2.83333 7.51571 3.76979 5.64279 5.64271C3.76987 7.51562 2.83341 9.80139 2.83341 12.5C2.83341 15.1986 3.76987 17.4844 5.64279 19.3573C7.51571 21.2302 9.80147 22.1667 12.5001 22.1667Z" fill="#F40000"/>
</svg>
