<svg width="23" height="23" viewBox="0 0 23 23" fill="none" xmlns="http://www.w3.org/2000/svg">
<path d="M3.83335 3.83301L19.1667 19.1663M15.8125 16.0575C14.5159 16.7561 13.0506 17.2497 11.5 17.2497C8.1171 17.2497 5.14243 14.8998 3.43756 13.2045C2.98714 12.757 2.76193 12.5337 2.61914 12.0938C2.5166 11.7805 2.5166 11.2189 2.61914 10.9055C2.76289 10.4656 2.9881 10.2414 3.43852 9.79384C4.29814 8.93901 5.47977 7.91934 6.87318 7.11722M18.6875 14.0239C19.0066 13.7431 19.2989 13.4662 19.5615 13.2055L19.5644 13.2026C20.0129 12.756 20.2381 12.5318 20.3809 12.0948C20.4834 11.7814 20.4834 11.2189 20.3809 10.9055C20.2371 10.4666 20.0129 10.2423 19.5625 9.7948C17.8566 8.09951 14.8829 5.74967 11.5 5.74967C11.1761 5.74967 10.857 5.77076 10.5417 5.81101M12.7679 12.9372C12.3967 13.265 11.913 13.4363 11.4183 13.4154C10.9235 13.3945 10.456 13.1829 10.1138 12.825C9.77163 12.467 9.58124 11.9905 9.58257 11.4953C9.58391 11.0001 9.77685 10.5246 10.121 10.1685" stroke="#7D7D7D" stroke-width="2" stroke-linecap="round" stroke-linejoin="round"/>
</svg>
