<svg width="37" height="39" viewBox="0 0 37 39" fill="none" xmlns="http://www.w3.org/2000/svg">
<path fill-rule="evenodd" clip-rule="evenodd" d="M26.5897 16.9941C26.2674 16.6722 25.8306 16.4914 25.3751 16.4914C24.9196 16.4914 24.4828 16.6722 24.1605 16.9941L20.2188 20.9357V2.16699C20.2188 1.71115 20.0378 1.27398 19.7154 0.951652C19.3931 0.629324 18.9559 0.448242 18.5001 0.448242C18.0443 0.448242 17.6071 0.629324 17.2848 0.951652C16.9624 1.27398 16.7813 1.71115 16.7813 2.16699V20.9357L12.8397 16.9941C12.5139 16.6905 12.0829 16.5252 11.6377 16.533C11.1924 16.5409 10.7675 16.7213 10.4526 17.0362C10.1377 17.3511 9.95734 17.7759 9.94949 18.2212C9.94163 18.6665 10.1069 19.0974 10.4105 19.4232L17.2855 26.2982C17.6078 26.6201 18.0446 26.8009 18.5001 26.8009C18.9556 26.8009 19.3924 26.6201 19.7147 26.2982L26.5897 19.4232C26.9115 19.101 27.0923 18.6641 27.0923 18.2087C27.0923 17.7532 26.9115 17.3163 26.5897 16.9941Z" fill="#7D7D7D"/>
<path d="M31.6728 20.5C30.6462 20.5 29.7478 21.1279 29.0214 21.8544L22.1464 28.7294C21.6676 29.2082 21.0991 29.588 20.4736 29.8471C19.848 30.1063 19.1775 30.2396 18.5003 30.2396C17.8232 30.2396 17.1527 30.1063 16.5271 29.8471C15.9015 29.588 15.3331 29.2082 14.8543 28.7294L7.97928 21.8544C7.25283 21.1279 6.35449 20.5 5.32783 20.5H0.166992C0.166992 25.3623 2.09853 30.0255 5.5367 33.4636C8.97487 36.9018 13.638 38.8333 18.5003 38.8333C23.3626 38.8333 28.0258 36.9018 31.464 33.4636C34.9021 30.0255 36.8337 25.3623 36.8337 20.5H31.6728Z" fill="#7D7D7D"/>
</svg>
