<svg width="14" height="16" viewBox="0 0 14 16" fill="none" xmlns="http://www.w3.org/2000/svg">
<path d="M11.375 5.6V4C11.375 2.93913 10.9141 1.92172 10.0936 1.17157C9.27312 0.421427 8.16032 0 7 0C5.83968 0 4.72688 0.421427 3.90641 1.17157C3.08594 1.92172 2.625 2.93913 2.625 4V5.6C1.92881 5.6 1.26113 5.85286 0.768845 6.30294C0.276562 6.75303 0 7.36348 0 8V13.6C0 14.2365 0.276562 14.847 0.768845 15.2971C1.26113 15.7471 1.92881 16 2.625 16H11.375C12.0712 16 12.7389 15.7471 13.2312 15.2971C13.7234 14.847 14 14.2365 14 13.6V8C14 7.36348 13.7234 6.75303 13.2312 6.30294C12.7389 5.85286 12.0712 5.6 11.375 5.6ZM4.375 4C4.375 3.36348 4.65156 2.75303 5.14384 2.30294C5.63613 1.85286 6.30381 1.6 7 1.6C7.69619 1.6 8.36387 1.85286 8.85616 2.30294C9.34844 2.75303 9.625 3.36348 9.625 4V5.6H4.375V4ZM12.25 13.6C12.25 13.8122 12.1578 14.0157 11.9937 14.1657C11.8296 14.3157 11.6071 14.4 11.375 14.4H2.625C2.39294 14.4 2.17038 14.3157 2.00628 14.1657C1.84219 14.0157 1.75 13.8122 1.75 13.6V8C1.75 7.78783 1.84219 7.58434 2.00628 7.43431C2.17038 7.28429 2.39294 7.2 2.625 7.2H11.375C11.6071 7.2 11.8296 7.28429 11.9937 7.43431C12.1578 7.58434 12.25 7.78783 12.25 8V13.6Z" fill="#9B9B9B"/>
</svg>
