<svg width="14" height="14" viewBox="0 0 14 14" fill="none" xmlns="http://www.w3.org/2000/svg">
<path d="M6.33325 8.99967H7.66658V10.333H6.33325V8.99967ZM6.33325 3.66634H7.66658V7.66634H6.33325V3.66634ZM6.99325 0.333008C3.31325 0.333008 0.333252 3.31967 0.333252 6.99967C0.333252 10.6797 3.31325 13.6663 6.99325 13.6663C10.6799 13.6663 13.6666 10.6797 13.6666 6.99967C13.6666 3.31967 10.6799 0.333008 6.99325 0.333008ZM6.99992 12.333C4.05325 12.333 1.66659 9.94634 1.66659 6.99967C1.66659 4.05301 4.05325 1.66634 6.99992 1.66634C9.94658 1.66634 12.3333 4.05301 12.3333 6.99967C12.3333 9.94634 9.94658 12.333 6.99992 12.333Z" fill="#FF9696"/>
</svg>
