<svg width="11" height="8" viewBox="0 0 11 8" fill="none" xmlns="http://www.w3.org/2000/svg">
<path d="M0.21959 2.87115C0.360236 2.73055 0.550967 2.65156 0.74984 2.65156C0.948713 2.65156 1.13944 2.73055 1.28009 2.87115L3.93209 5.52315L9.23459 0.219902C9.30422 0.150219 9.3869 0.0949343 9.4779 0.0572035C9.5689 0.0194727 9.66644 3.48703e-05 9.76495 4.68736e-08C9.86346 -3.47766e-05 9.96101 0.0193341 10.052 0.0570006C10.1431 0.094667 10.2258 0.149894 10.2955 0.219527C10.3651 0.28916 10.4204 0.371837 10.4582 0.462836C10.4959 0.553836 10.5153 0.651375 10.5154 0.749887C10.5154 0.848398 10.496 0.945952 10.4584 1.03698C10.4207 1.128 10.3655 1.21072 10.2958 1.2804L3.93209 7.64415L0.21959 3.93165C0.0789866 3.79101 0 3.60027 0 3.4014C0 3.20253 0.0789866 3.0118 0.21959 2.87115Z" fill="white"/>
</svg>
