<svg width="12" height="12" viewBox="0 0 12 12" fill="none" xmlns="http://www.w3.org/2000/svg">
<path d="M3.1999 6.00039L5.5999 8.00039L8.7999 4.00039M5.9999 11.6004C5.2645 11.6004 4.5363 11.4555 3.85688 11.1741C3.17745 10.8927 2.56011 10.4802 2.0401 9.96019C1.5201 9.44018 1.1076 8.82284 0.826177 8.14342C0.544751 7.46399 0.399902 6.73579 0.399902 6.00039C0.399902 5.26499 0.544751 4.53679 0.826177 3.85736C1.1076 3.17794 1.5201 2.5606 2.0401 2.04059C2.56011 1.52058 3.17745 1.10809 3.85688 0.826665C4.5363 0.545239 5.2645 0.400391 5.9999 0.400391C7.48511 0.400391 8.9095 0.990389 9.9597 2.04059C11.0099 3.0908 11.5999 4.51518 11.5999 6.00039C11.5999 7.4856 11.0099 8.90998 9.9597 9.96019C8.9095 11.0104 7.48511 11.6004 5.9999 11.6004Z" stroke="#C9FFC8"/>
</svg>
