<svg width="19" height="18" viewBox="0 0 19 18" fill="none" xmlns="http://www.w3.org/2000/svg">
<path d="M17.2188 0H12.4688C11.4854 0 10.6875 0.863839 10.6875 1.92857V7.07143C10.6875 8.13616 11.4854 9 12.4688 9H15.4375V11.5714C15.4375 12.9897 14.3725 14.1429 13.0625 14.1429H12.7656C12.2721 14.1429 11.875 14.5728 11.875 15.1071V17.0357C11.875 17.5701 12.2721 18 12.7656 18H13.0625C16.343 18 19 15.1232 19 11.5714V1.92857C19 0.863839 18.2021 0 17.2188 0ZM6.53125 0H1.78125C0.797852 0 0 0.863839 0 1.92857V7.07143C0 8.13616 0.797852 9 1.78125 9H4.75V11.5714C4.75 12.9897 3.68496 14.1429 2.375 14.1429H2.07812C1.58457 14.1429 1.1875 14.5728 1.1875 15.1071V17.0357C1.1875 17.5701 1.58457 18 2.07812 18H2.375C5.65547 18 8.3125 15.1232 8.3125 11.5714V1.92857C8.3125 0.863839 7.51465 0 6.53125 0Z" fill="#7D7D7D"/>
</svg>
