<svg width="15" height="18" viewBox="0 0 15 18" fill="none" xmlns="http://www.w3.org/2000/svg">
<path d="M4.53125 4.74995V7.12495H12.8438C13.3162 7.12495 13.7692 7.31262 14.1033 7.64667C14.4373 7.98071 14.625 8.43378 14.625 8.9062V16.0312C14.625 16.5036 14.4373 16.9567 14.1033 17.2907C13.7692 17.6248 13.3162 17.8125 12.8438 17.8125H2.15625C1.68383 17.8125 1.23077 17.6248 0.896716 17.2907C0.562667 16.9567 0.375 16.5036 0.375 16.0312V8.9062C0.375 8.43399 0.562504 7.9811 0.896296 7.64709C1.23009 7.31307 1.68285 7.12526 2.15506 7.12495H2.75V4.74995C2.7498 3.72245 3.08278 2.72259 3.69899 1.90037C4.31519 1.07816 5.1814 0.477918 6.16765 0.18971C7.1539 -0.0984976 8.20701 -0.0591344 9.16899 0.301895C10.131 0.662924 10.95 1.32615 11.5031 2.19207C11.5661 2.29063 11.609 2.40063 11.6295 2.5158C11.65 2.63096 11.6476 2.74903 11.6225 2.86327C11.5973 2.97751 11.5499 3.08568 11.483 3.1816C11.4161 3.27753 11.3309 3.35932 11.2323 3.42232C11.1338 3.48533 11.0238 3.5283 10.9086 3.54879C10.7934 3.56928 10.6754 3.56688 10.5611 3.54174C10.3304 3.49097 10.1293 3.35062 10.0021 3.15157C9.65641 2.61032 9.14457 2.19575 8.54333 1.97006C7.94209 1.74436 7.28388 1.71972 6.66744 1.89982C6.05101 2.07992 5.5096 2.45505 5.12444 2.96894C4.73928 3.48282 4.53114 4.10775 4.53125 4.74995ZM2.15625 8.9062V16.0312H12.8438V8.9062H2.15625Z" fill="white"/>
</svg>
