<svg width="30" height="14" viewBox="0 0 30 14" fill="none" xmlns="http://www.w3.org/2000/svg">
<path d="M17.1875 3.71875L17.5 3.25C18.2871 2.20059 19.3844 1.42542 20.6365 1.03429C21.8886 0.643164 23.232 0.655913 24.4764 1.07073C25.7209 1.48555 26.8033 2.2814 27.5703 3.34556C28.3373 4.40972 28.75 5.68823 28.75 7C28.75 8.31177 28.3373 9.59028 27.5703 10.6544C26.8033 11.7186 25.7209 12.5145 24.4764 12.9293C23.232 13.3441 21.8886 13.3568 20.6365 12.9657C19.3844 12.5746 18.2871 11.7994 17.5 10.75L12.5 3.25C11.7129 2.20059 10.6156 1.42542 9.36355 1.03429C8.11145 0.643164 6.76803 0.655913 5.52358 1.07073C4.27913 1.48555 3.19674 2.2814 2.42974 3.34556C1.66273 4.40972 1.25 5.68823 1.25 7C1.25 8.31177 1.66273 9.59028 2.42974 10.6544C3.19674 11.7186 4.27913 12.5145 5.52358 12.9293C6.76803 13.3441 8.11145 13.3568 9.36355 12.9657C10.6156 12.5746 11.7129 11.7994 12.5 10.75L12.9175 10.125" stroke="url(#paint0_linear_674_4086)" stroke-width="1.5" stroke-linecap="round" stroke-linejoin="round"/>
<defs>
<linearGradient id="paint0_linear_674_4086" x1="15" y1="0.75" x2="15" y2="13.25" gradientUnits="userSpaceOnUse">
<stop stop-color="#272727"/>
<stop offset="0.500054" stop-color="#4B4B4B"/>
<stop offset="1" stop-color="#272727"/>
</linearGradient>
</defs>
</svg>
