<svg width="28" height="28" viewBox="0 0 28 28" fill="none" xmlns="http://www.w3.org/2000/svg">
<path d="M23.9995 18.44C23.2637 20.7776 21.8015 22.8195 19.8255 24.269C17.8495 25.7185 15.4627 26.5001 13.012 26.5C11.2012 26.5005 9.41572 26.0739 7.80073 25.2547C6.18574 24.4355 4.78677 23.247 3.71748 21.7855C2.64818 20.324 1.93872 18.631 1.64674 16.8438C1.35475 15.0566 1.48847 13.2258 2.03704 11.5M9.55954 4C7.95887 4.50356 6.4878 5.3513 5.24954 6.48375" stroke="url(#paint0_linear_674_4090)" stroke-width="1.5" stroke-linecap="round"/>
<path d="M26.3913 11.4337C25.7334 9.09108 24.4841 6.95697 22.7636 5.23639C21.043 3.51582 18.9089 2.26659 16.5663 1.60872C14.5113 1.03497 12.75 2.81747 12.75 4.94997V13.3175C12.75 14.3837 13.615 15.2487 14.6813 15.2487H23.0488C25.1825 15.2487 26.965 13.4875 26.3913 11.4337Z" stroke="url(#paint1_linear_674_4090)" stroke-width="1.5"/>
<defs>
<linearGradient id="paint0_linear_674_4090" x1="12.7478" y1="4" x2="12.7478" y2="26.5" gradientUnits="userSpaceOnUse">
<stop stop-color="#272727"/>
<stop offset="0.500054" stop-color="#4B4B4B"/>
<stop offset="1" stop-color="#272727"/>
</linearGradient>
<linearGradient id="paint1_linear_674_4090" x1="19.625" y1="1.5" x2="19.625" y2="15.2487" gradientUnits="userSpaceOnUse">
<stop stop-color="#272727"/>
<stop offset="0.500054" stop-color="#4B4B4B"/>
<stop offset="1" stop-color="#272727"/>
</linearGradient>
</defs>
</svg>
