<svg width="30" height="30" viewBox="0 0 30 30" fill="none" xmlns="http://www.w3.org/2000/svg">
<path d="M12.0832 17.0832C12.8568 16.3096 13.906 15.875 15 15.875C16.094 15.875 17.1432 16.3096 17.9168 17.0832C18.6904 17.8568 19.125 18.906 19.125 20C19.125 21.094 18.6904 22.1432 17.9168 22.9168C17.1432 23.6904 16.094 24.125 15 24.125C13.906 24.125 12.8568 23.6904 12.0832 22.9168C11.3096 22.1432 10.875 21.094 10.875 20C10.875 18.906 11.3096 17.8568 12.0832 17.0832ZM13.4974 18.4974C13.0989 18.8959 12.875 19.4364 12.875 20C12.875 20.5636 13.0989 21.1041 13.4974 21.5026C13.8959 21.9011 14.4364 22.125 15 22.125C15.5636 22.125 16.1041 21.9011 16.5026 21.5026C16.9011 21.1041 17.125 20.5636 17.125 20C17.125 19.4364 16.9011 18.8959 16.5026 18.4974C16.1041 18.0989 15.5636 17.875 15 17.875C14.4364 17.875 13.8959 18.0989 13.4974 18.4974Z" fill="url(#paint0_linear_674_4099)" stroke="white" stroke-width="0.5"/>
<path d="M21.704 6.54015L21.812 6.69164L21.9881 6.63162L24.3742 5.81844L26.6859 12.5808L26.7438 12.75H26.9225H27.875V27.25H2.125V12.75H2.5125H2.7625V12.7402L3.3198 12.7462L3.40891 12.7472L3.47854 12.6916L17.8835 1.18384L21.704 6.54015ZM24.2812 12.75H24.6309L24.5178 12.4191L23.2216 8.62785L23.1423 8.39593L22.9088 8.47062L21.0063 9.07937L21.0063 9.07933L21.0018 9.08085L11.6656 12.2634L11.7463 12.75H24.2812ZM19.5182 7.47411L19.836 7.36578L19.6411 7.09236L17.6361 4.27986L17.4828 4.06483L17.2765 4.22966L9.64396 10.3272L9.88066 10.7591L19.5182 7.47411ZM4.125 22.7112V22.8879L4.29155 22.9469C4.78446 23.1214 5.23219 23.4039 5.60205 23.7735C5.9719 24.1432 6.25456 24.5907 6.42939 25.0836L6.48842 25.25H6.665H23.3375H23.5141L23.5731 25.0836C23.7478 24.5912 24.0301 24.1439 24.3995 23.7745C24.769 23.4051 25.2162 23.1228 25.7086 22.9481L25.875 22.8891V22.7125V17.2875V17.1109L25.7086 17.0519C25.2162 16.8772 24.769 16.5949 24.3995 16.2254C24.0301 15.856 23.7478 15.4088 23.5731 14.9164L23.5141 14.75H23.3375H6.6625H6.48596L6.4269 14.9163C6.25218 15.4086 5.96981 15.8556 5.60039 16.2248C5.23097 16.594 4.7838 16.8761 4.2915 17.0506L4.125 17.1096V17.2862V22.7112Z" fill="url(#paint1_linear_674_4099)" stroke="white" stroke-width="0.5"/>
<defs>
<linearGradient id="paint0_linear_674_4099" x1="15" y1="15.625" x2="15" y2="24.375" gradientUnits="userSpaceOnUse">
<stop stop-color="#272727"/>
<stop offset="0.500054" stop-color="#4B4B4B"/>
<stop offset="1" stop-color="#272727"/>
</linearGradient>
<linearGradient id="paint1_linear_674_4099" x1="15" y1="0.82373" x2="15" y2="27.5" gradientUnits="userSpaceOnUse">
<stop stop-color="#272727"/>
<stop offset="0.500054" stop-color="#4B4B4B"/>
<stop offset="1" stop-color="#272727"/>
</linearGradient>
</defs>
</svg>
