<svg width="20" height="26" viewBox="0 0 20 26" fill="none" xmlns="http://www.w3.org/2000/svg">
<path d="M2.30714 26C1.66905 26 1.12476 25.7727 0.674286 25.3182C0.224762 24.8637 0 24.3134 0 23.6672V10.9994C0 10.3543 0.224762 9.80393 0.674286 9.34845C1.12381 8.89393 1.66809 8.66667 2.30714 8.66667H4.28571V5.77778C4.28571 4.16867 4.84 2.80319 5.94857 1.68133C7.05714 0.559483 8.40762 -0.000961724 10 1.2388e-06C11.5914 1.2388e-06 12.9419 0.560446 14.0514 1.68133C15.161 2.80222 15.7152 4.16771 15.7143 5.77778V8.66667H17.6929C18.331 8.66667 18.8752 8.89393 19.3257 9.34845C19.7752 9.80296 20 10.3533 20 10.9994V23.6672C20 24.3124 19.7752 24.8627 19.3257 25.3182C18.8762 25.7727 18.3319 26 17.6929 26H2.30714ZM2.30714 24.5556H17.6929C17.949 24.5556 18.1595 24.4723 18.3243 24.3057C18.489 24.1391 18.5714 23.9263 18.5714 23.6672V10.9994C18.5714 10.7404 18.489 10.5276 18.3243 10.361C18.1595 10.1944 17.949 10.1111 17.6929 10.1111H2.30714C2.05095 10.1111 1.84048 10.1944 1.67571 10.361C1.51095 10.5276 1.42857 10.7404 1.42857 10.9994V23.6672C1.42857 23.9263 1.51095 24.1391 1.67571 24.3057C1.84048 24.4723 2.05095 24.5556 2.30714 24.5556ZM10 19.5C10.6029 19.5 11.1105 19.291 11.5229 18.8731C11.9362 18.4562 12.1429 17.9429 12.1429 17.3333C12.1429 16.7238 11.9362 16.2105 11.5229 15.7936C11.1105 15.3756 10.6029 15.1667 10 15.1667C9.39714 15.1667 8.88952 15.3756 8.47714 15.7936C8.06381 16.2105 7.85714 16.7238 7.85714 17.3333C7.85714 17.9429 8.06381 18.4562 8.47714 18.8731C8.88952 19.291 9.39714 19.5 10 19.5ZM5.71429 8.66667H14.2857V5.77778C14.2857 4.57408 13.869 3.55093 13.0357 2.70833C12.2024 1.86574 11.1905 1.44445 10 1.44445C8.80952 1.44445 7.79762 1.86574 6.96429 2.70833C6.13095 3.55093 5.71429 4.57408 5.71429 5.77778V8.66667Z" fill="url(#paint0_linear_674_4081)"/>
<defs>
<linearGradient id="paint0_linear_674_4081" x1="10" y1="0" x2="10" y2="26" gradientUnits="userSpaceOnUse">
<stop stop-color="#272727"/>
<stop offset="0.500054" stop-color="#4B4B4B"/>
<stop offset="1" stop-color="#272727"/>
</linearGradient>
</defs>
</svg>
