<svg width="17" height="17" viewBox="0 0 17 17" fill="none" xmlns="http://www.w3.org/2000/svg">
<path opacity="0.15" d="M4.25 14.1663H12.75V7.08301H4.25V14.1663ZM8.5 9.20801C9.27917 9.20801 9.91667 9.84551 9.91667 10.6247C9.91667 11.4038 9.27917 12.0413 8.5 12.0413C7.72083 12.0413 7.08333 11.4038 7.08333 10.6247C7.08333 9.84551 7.72083 9.20801 8.5 9.20801Z" fill="#717171"/>
<path d="M12.7497 5.66634H12.0413V4.24967C12.0413 2.29467 10.4547 0.708008 8.49967 0.708008C6.54467 0.708008 4.95801 2.29467 4.95801 4.24967V5.66634H4.24967C3.47051 5.66634 2.83301 6.30384 2.83301 7.08301V14.1663C2.83301 14.9455 3.47051 15.583 4.24967 15.583H12.7497C13.5288 15.583 14.1663 14.9455 14.1663 14.1663V7.08301C14.1663 6.30384 13.5288 5.66634 12.7497 5.66634ZM6.37467 4.24967C6.37467 3.07384 7.32384 2.12467 8.49967 2.12467C9.67551 2.12467 10.6247 3.07384 10.6247 4.24967V5.66634H6.37467V4.24967ZM12.7497 14.1663H4.24967V7.08301H12.7497V14.1663ZM8.49967 12.0413C9.27884 12.0413 9.91634 11.4038 9.91634 10.6247C9.91634 9.84551 9.27884 9.20801 8.49967 9.20801C7.72051 9.20801 7.08301 9.84551 7.08301 10.6247C7.08301 11.4038 7.72051 12.0413 8.49967 12.0413Z" fill="#717171"/>
</svg>
