<svg width="17" height="17" viewBox="0 0 17 17" fill="none" xmlns="http://www.w3.org/2000/svg">
<path opacity="0.15" d="M4.25 14.1668H12.75V7.0835H4.25V14.1668ZM8.5 9.2085C9.27917 9.2085 9.91667 9.846 9.91667 10.6252C9.91667 11.4043 9.27917 12.0418 8.5 12.0418C7.72083 12.0418 7.08333 11.4043 7.08333 10.6252C7.08333 9.846 7.72083 9.2085 8.5 9.2085Z" fill="#272727"/>
<path d="M12.7497 5.66683H12.0413V4.25016C12.0413 2.29516 10.4547 0.708496 8.49967 0.708496C6.54467 0.708496 4.95801 2.29516 4.95801 4.25016V5.66683H4.24967C3.47051 5.66683 2.83301 6.30433 2.83301 7.0835V14.1668C2.83301 14.946 3.47051 15.5835 4.24967 15.5835H12.7497C13.5288 15.5835 14.1663 14.946 14.1663 14.1668V7.0835C14.1663 6.30433 13.5288 5.66683 12.7497 5.66683ZM6.37467 4.25016C6.37467 3.07433 7.32384 2.12516 8.49967 2.12516C9.67551 2.12516 10.6247 3.07433 10.6247 4.25016V5.66683H6.37467V4.25016ZM12.7497 14.1668H4.24967V7.0835H12.7497V14.1668ZM8.49967 12.0418C9.27884 12.0418 9.91634 11.4043 9.91634 10.6252C9.91634 9.846 9.27884 9.2085 8.49967 9.2085C7.72051 9.2085 7.08301 9.846 7.08301 10.6252C7.08301 11.4043 7.72051 12.0418 8.49967 12.0418Z" fill="#272727"/>
</svg>
