<svg width="31" height="31" viewBox="0 0 31 31" fill="none" xmlns="http://www.w3.org/2000/svg">
<path d="M11.8226 6.9855C13.4591 4.05083 14.2768 2.5835 15.5 2.5835C16.7232 2.5835 17.5408 4.05083 19.1774 6.9855L19.601 7.745C20.066 8.57941 20.2985 8.99662 20.6602 9.27175C21.0219 9.54687 21.4739 9.64891 22.3781 9.853L23.1996 10.039C26.3771 10.7585 27.9646 11.1175 28.343 12.333C28.7202 13.5472 27.6378 14.8143 25.4716 17.3472L24.9111 18.0021C24.2962 18.7216 23.9875 19.082 23.8493 19.5263C23.7111 19.9719 23.7576 20.4524 23.8506 21.4121L23.9359 22.2866C24.2626 25.6669 24.4267 27.3564 23.4373 28.1068C22.4479 28.8586 20.9599 28.1727 17.9864 26.8035L17.2153 26.4496C16.3706 26.0595 15.9482 25.8658 15.5 25.8658C15.0518 25.8658 14.6294 26.0595 13.7846 26.4496L13.0148 26.8035C10.0401 28.1727 8.5521 28.8573 7.56398 28.1081C6.57327 27.3564 6.73731 25.6669 7.0641 22.2866L7.14935 21.4134C7.24235 20.4524 7.28885 19.9719 7.14935 19.5276C7.01244 19.082 6.70373 18.7216 6.0889 18.0034L5.52831 17.3472C3.36219 14.8156 2.27977 13.5485 2.65694 12.333C3.03539 11.1175 4.62414 10.7572 7.80165 10.039L8.62315 9.853C9.52602 9.64891 9.97681 9.54687 10.3398 9.27175C10.7014 8.99662 10.9339 8.57941 11.3989 7.745L11.8226 6.9855Z" fill="#FFD15D"/>
</svg>
