<svg width="17" height="16" viewBox="0 0 17 16" fill="none" xmlns="http://www.w3.org/2000/svg">
<path fill-rule="evenodd" clip-rule="evenodd" d="M2.375 14.1875C2.22582 14.1875 2.08274 14.1282 1.97725 14.0227C1.87176 13.9173 1.8125 13.7742 1.8125 13.625V2.375C1.8125 2.22582 1.87176 2.08274 1.97725 1.97725C2.08274 1.87176 2.22582 1.8125 2.375 1.8125H12.7812C13.005 1.8125 13.2196 1.72361 13.3779 1.56537C13.5361 1.40714 13.625 1.19253 13.625 0.96875C13.625 0.744974 13.5361 0.530362 13.3779 0.372129C13.2196 0.213895 13.005 0.125 12.7812 0.125H2.375C1.77826 0.125 1.20597 0.362053 0.78401 0.78401C0.362053 1.20597 0.125 1.77826 0.125 2.375V13.625C0.125 14.2217 0.362053 14.794 0.78401 15.216C1.20597 15.6379 1.77826 15.875 2.375 15.875H13.625C14.2217 15.875 14.794 15.6379 15.216 15.216C15.6379 14.794 15.875 14.2217 15.875 13.625V9.96875C15.875 9.74497 15.7861 9.53036 15.6279 9.37213C15.4696 9.21389 15.255 9.125 15.0312 9.125C14.8075 9.125 14.5929 9.21389 14.4346 9.37213C14.2764 9.53036 14.1875 9.74497 14.1875 9.96875V13.625C14.1875 13.7742 14.1282 13.9173 14.0227 14.0227C13.9173 14.1282 13.7742 14.1875 13.625 14.1875H2.375ZM16.7525 4.265C16.9015 4.10505 16.9827 3.8935 16.9788 3.67491C16.975 3.45632 16.8864 3.24777 16.7318 3.09318C16.5772 2.93859 16.3687 2.85003 16.1501 2.84618C15.9315 2.84232 15.7199 2.92346 15.56 3.0725L9.30725 9.32413L7.20013 7.14613C7.12325 7.06579 7.03125 7.00145 6.92942 6.95679C6.82759 6.91214 6.71794 6.88805 6.60677 6.88591C6.4956 6.88377 6.38511 6.90363 6.28164 6.94434C6.17817 6.98505 6.08376 7.0458 6.00385 7.12312C5.92394 7.20043 5.8601 7.29278 5.816 7.39485C5.7719 7.49692 5.74841 7.6067 5.74688 7.71788C5.74535 7.82906 5.76581 7.93945 5.80708 8.0427C5.84835 8.14594 5.90962 8.24001 5.98737 8.3195L8.69075 11.114C8.76853 11.1947 8.86161 11.259 8.96454 11.3034C9.06748 11.3477 9.17821 11.371 9.29027 11.3721C9.40233 11.3731 9.51347 11.3518 9.61722 11.3095C9.72096 11.2671 9.81522 11.2045 9.8945 11.1252L16.7525 4.265Z" fill="#9B9B9B"/>
</svg>
