<svg width="20" height="19" viewBox="0 0 20 19" fill="none" xmlns="http://www.w3.org/2000/svg">
<path d="M8.33327 16.5003H11.6666C11.6666 16.9424 11.491 17.3663 11.1784 17.6788C10.8659 17.9914 10.442 18.167 9.99994 18.167C9.55791 18.167 9.13399 17.9914 8.82142 17.6788C8.50886 17.3663 8.33327 16.9424 8.33327 16.5003ZM17.4999 14.8337V15.667H2.49993V14.8337L4.1666 13.167V8.16699C4.1666 5.58366 5.85827 3.30866 8.33327 2.57533V2.33366C8.33327 1.89163 8.50886 1.46771 8.82142 1.15515C9.13399 0.842587 9.55791 0.666992 9.99994 0.666992C10.442 0.666992 10.8659 0.842587 11.1784 1.15515C11.491 1.46771 11.6666 1.89163 11.6666 2.33366V2.57533C14.1416 3.30866 15.8333 5.58366 15.8333 8.16699V13.167L17.4999 14.8337ZM14.1666 8.16699C14.1666 7.06192 13.7276 6.00212 12.9462 5.22071C12.1648 4.43931 11.105 4.00033 9.99994 4.00033C8.89487 4.00033 7.83506 4.43931 7.05366 5.22071C6.27226 6.00212 5.83327 7.06192 5.83327 8.16699V14.0003H14.1666V8.16699ZM16.4583 1.65866L15.2749 2.84199C15.9797 3.53817 16.5393 4.36734 16.9213 5.28143C17.3032 6.19551 17.4999 7.17632 17.4999 8.16699H19.1666C19.1666 5.72533 18.1999 3.37533 16.4583 1.65866ZM0.833268 8.16699H2.49993C2.49993 6.16699 3.29993 4.25033 4.72494 2.84199L3.5416 1.65866C2.6815 2.50997 1.99916 3.52372 1.53422 4.641C1.06928 5.75829 0.831015 6.95683 0.833268 8.16699Z" fill="#9B9B9B"/>
</svg>
